<svg width="16" height="16" viewBox="0 0 16 16" fill="none" xmlns="http://www.w3.org/2000/svg">
<path fill-rule="evenodd" clip-rule="evenodd" d="M16 8C16 12.4182 12.4182 16 8 16C3.58176 16 0 12.4182 0 8C0 3.58176 3.58176 0 8 0C12.4182 0 16 3.58176 16 8Z" fill="#FF492C"/>
<path fill-rule="evenodd" clip-rule="evenodd" d="M11.4672 6.12678H10.1C10.1371 5.91251 10.2693 5.79299 10.5378 5.65699L10.7898 5.52922C11.24 5.29853 11.4796 5.03888 11.4796 4.61437C11.4796 4.3465 11.3763 4.13626 11.1698 3.98387C10.9674 3.83136 10.7195 3.75712 10.4345 3.75712C10.2074 3.75712 10.0008 3.81485 9.81081 3.93434C9.62495 4.04979 9.48447 4.19815 9.39779 4.38355L9.79436 4.77923C9.94713 4.47014 10.1702 4.31763 10.4635 4.31763C10.7113 4.31763 10.8642 4.44544 10.8642 4.62256C10.8642 4.77101 10.7898 4.89456 10.5048 5.03888L10.3437 5.11715C9.9926 5.29437 9.74889 5.49629 9.60841 5.72707C9.46803 5.95373 9.39779 6.24627 9.39779 6.59667V6.69146H11.4672V6.12678Z" fill="white"/>
<path fill-rule="evenodd" clip-rule="evenodd" d="M11.2813 7.34574H9.02103L7.89095 9.30357H10.1512L11.2813 11.2615L12.4114 9.30357L11.2813 7.34574Z" fill="white"/>
<path fill-rule="evenodd" clip-rule="evenodd" d="M8.08243 10.6114C6.64147 10.6114 5.46918 9.43999 5.46918 7.99999C5.46918 6.56012 6.64147 5.38863 8.08243 5.38863L8.97705 3.51762C8.68777 3.46024 8.38867 3.42997 8.08243 3.42997C5.55677 3.42997 3.50928 5.47608 3.50928 7.99999C3.50928 10.524 5.55677 12.57 8.08243 12.57C9.08941 12.57 10.0202 12.2446 10.7757 11.6935L9.78492 9.97868C9.32726 10.3725 8.73238 10.6114 8.08243 10.6114Z" fill="white"/>
</svg>
