<svg width="16" height="16" viewBox="0 0 16 16" fill="none" xmlns="http://www.w3.org/2000/svg">
<path d="M8.60126 1.0454C8.49041 0.813998 8.2566 0.666748 8.00002 0.666748C7.74344 0.666748 7.50963 0.813998 7.39878 1.0454L5.63694 4.72329L1.57989 5.25601C1.32484 5.2895 1.11182 5.46674 1.0325 5.71145C0.953187 5.95616 1.02174 6.22466 1.20864 6.4014L4.17491 9.20629L3.43037 13.2116C3.38343 13.4641 3.48572 13.7211 3.69332 13.8723C3.90093 14.0235 4.17693 14.042 4.40286 13.9199L8.00002 11.9751L11.5972 13.9199C11.8231 14.042 12.0991 14.0235 12.3067 13.8723C12.5143 13.7211 12.6166 13.4641 12.5697 13.2116L11.8251 9.20629L14.7914 6.4014C14.9783 6.22466 15.0469 5.95616 14.9675 5.71145C14.8882 5.46674 14.6752 5.2895 14.4201 5.25601L10.3631 4.72329L8.60126 1.0454Z" fill="#FFC802"/>
</svg>
